<svg width="378" height="38" viewBox="0 0 378 38" fill="none" xmlns="http://www.w3.org/2000/svg">
<path d="M14 35H370" stroke="black" stroke-dasharray="4 4"/>
<path d="M5.66995 26.0623L5.18681 26.1911L5.18681 26.1911L5.66995 26.0623ZM5.88516 26.87L6.3683 26.7412L6.3683 26.7412L5.88516 26.87ZM16.0684 27.1478L15.9383 26.665L15.9383 26.665L16.0684 27.1478ZM19.9371 26.1054L20.0672 26.5881L20.0681 26.5879L19.9371 26.1054ZM9.50764 28.9155L9.37755 28.4327L9.37755 28.4327L9.50764 28.9155ZM11.7905 28.3004L11.9206 28.7832L11.9206 28.7832L11.7905 28.3004ZM5.54835 24.9803L6.00518 25.1836L6.00518 25.1836L5.54835 24.9803ZM6.65266 24.397L6.52257 23.9142L6.65266 24.397ZM7.37906 24.2841L7.47961 23.7943L7.47961 23.7943L7.37906 24.2841ZM15.6089 27.5223L16.0552 27.7478L16.0552 27.7478L15.6089 27.5223ZM14.6884 29.3433L15.119 29.5974C15.1246 29.5881 15.1298 29.5785 15.1347 29.5689L14.6884 29.3433ZM13.7833 30.0297L13.9134 30.5125L13.9134 30.5125L13.7833 30.0297ZM12.0874 30.4866L11.9573 30.0038L11.9573 30.0038L12.0874 30.4866ZM11.6305 30.0631L12.1195 30.1675L12.1195 30.1675L11.6305 30.0631ZM11.9701 28.4721L11.4812 28.3678L11.4812 28.3678L11.9701 28.4721ZM14.3663 23.4659L14.5806 23.9177L14.5806 23.9177L14.3663 23.4659ZM10.1301 25.5099L9.91283 25.0596L9.91283 25.0596L10.1301 25.5099ZM8.37407 25.1751L8.74589 24.8408L8.74589 24.8408L8.37407 25.1751ZM20.3665 24.9699L20.7721 24.6775L20.7697 24.6744L20.3665 24.9699ZM5.18681 26.1911L5.40201 26.9987L6.3683 26.7412L6.1531 25.9336L5.18681 26.1911ZM16.1984 27.6306L20.0672 26.5881L19.8071 25.6226L15.9383 26.665L16.1984 27.6306ZM9.63772 29.3983L11.9206 28.7832L11.6604 27.8176L9.37755 28.4327L9.63772 29.3983ZM6.1531 25.9336C6.07468 25.6393 6.0279 25.4606 6.00846 25.3259C5.99947 25.2636 5.99916 25.2275 6.00072 25.2071C6.00204 25.19 6.00458 25.1849 6.00518 25.1836L5.09152 24.7771C4.98572 25.0149 4.9873 25.2511 5.01871 25.4687C5.0485 25.6752 5.11465 25.9203 5.18681 26.1911L6.1531 25.9336ZM6.78274 24.8798C6.97494 24.828 7.08866 24.7978 7.17617 24.7822C7.25491 24.7681 7.27566 24.7733 7.2785 24.7739L7.47961 23.7943C7.30789 23.7591 7.14939 23.7711 7.00054 23.7977C6.86046 23.8227 6.69827 23.8668 6.52257 23.9142L6.78274 24.8798ZM5.40201 26.9987C5.57537 27.6493 5.71752 28.187 5.88868 28.5957C6.06581 29.0186 6.30111 29.3726 6.70099 29.5984L7.1927 28.7276C7.06208 28.6539 6.94359 28.5258 6.81104 28.2094C6.67251 27.8786 6.54907 27.4197 6.3683 26.7412L5.40201 26.9987ZM9.37755 28.4327C8.68738 28.6187 8.21717 28.7443 7.8528 28.7927C7.50178 28.8393 7.32494 28.8023 7.1927 28.7276L6.70099 29.5984C7.09925 29.8233 7.52604 29.8449 7.98441 29.784C8.42942 29.7249 8.97436 29.577 9.63772 29.3983L9.37755 28.4327ZM15.1627 27.2967L14.2422 29.1177L15.1347 29.5689L16.0552 27.7478L15.1627 27.2967ZM13.6532 29.5469L11.9573 30.0038L12.2175 30.9694L13.9134 30.5125L13.6532 29.5469ZM12.1195 30.1675L12.4591 28.5765L11.4812 28.3678L11.1415 29.9587L12.1195 30.1675ZM11.9573 30.0038C12.0373 29.9823 12.1437 30.054 12.1195 30.1675L11.1415 29.9587C11.0035 30.6051 11.6039 31.1347 12.2175 30.9694L11.9573 30.0038ZM14.2578 29.0892C14.126 29.3125 13.9089 29.478 13.6532 29.5469L13.9134 30.5125C14.4192 30.3762 14.8532 30.0479 15.119 29.5974L14.2578 29.0892ZM14.1521 23.0141C12.7338 23.6867 11.3205 24.3804 9.91283 25.0596L10.3474 25.9603C11.7637 25.2769 13.1659 24.5885 14.5806 23.9177L14.1521 23.0141ZM6.52257 23.9142C6.38473 23.9513 6.08119 24.0134 5.84061 24.1092C5.58068 24.2126 5.25909 24.4004 5.09152 24.7771L6.00518 25.1836C6.01978 25.1508 6.05923 25.0984 6.21034 25.0383C6.3808 24.9705 6.53833 24.9456 6.78274 24.8798L6.52257 23.9142ZM8.74589 24.8408C8.68907 24.7776 8.62936 24.7027 8.55132 24.6061C8.4777 24.515 8.39086 24.4085 8.29597 24.3069C8.11666 24.1149 7.84611 23.8696 7.47961 23.7943L7.2785 24.7739C7.32801 24.7841 7.41896 24.833 7.56515 24.9895C7.63302 25.0621 7.69993 25.1435 7.77337 25.2344C7.84239 25.3199 7.92307 25.4213 8.00225 25.5094L8.74589 24.8408ZM9.91283 25.0596C9.49413 25.2617 9.34459 25.2766 9.26334 25.2616C9.18627 25.2473 9.05428 25.1838 8.74589 24.8408L8.00225 25.5094C8.31621 25.8586 8.64471 26.164 9.08132 26.2449C9.51375 26.3249 9.93106 26.1612 10.3474 25.9603L9.91283 25.0596ZM20.7697 24.6744C19.2566 22.6095 16.4514 21.9239 14.1521 23.0141L14.5806 23.9177C16.4523 23.0302 18.7373 23.5927 19.9632 25.2655L20.7697 24.6744ZM20.0681 26.5879C20.8472 26.3764 21.3068 25.4194 20.7721 24.6775L19.9608 25.2623C20.0046 25.323 20.0114 25.3918 19.9831 25.4631C19.9528 25.5395 19.8876 25.6007 19.8061 25.6228L20.0681 26.5879ZM11.9206 28.7832C11.6595 28.8535 11.427 28.6216 11.4812 28.3678L12.4591 28.5765C12.5589 28.1092 12.1313 27.6908 11.6604 27.8176L11.9206 28.7832ZM15.9383 26.665C15.6015 26.7557 15.3198 26.9858 15.1627 27.2967L16.0552 27.7478C16.0848 27.6893 16.1372 27.6471 16.1984 27.6306L15.9383 26.665Z" fill="black"/>
<path d="M5.5 35H17.5" stroke="black" stroke-linecap="round" stroke-linejoin="round"/>
<circle cx="367.5" cy="34.5" r="2.5" fill="black"/>
<circle cx="6.5" cy="34.5" r="2.5" fill="black"/>
<path d="M171.5 35L183.5 35" stroke="black" stroke-linecap="round" stroke-linejoin="round"/>
<path d="M184.893 25.6552L184.393 25.6569L184.893 25.6552ZM184.896 26.5201L185.396 26.5185L185.396 26.5185L184.896 26.5201ZM194.947 29.573L194.945 30.073L194.945 30.073L194.947 29.573ZM199.065 29.5868L199.063 30.0868L199.064 30.0868L199.065 29.5868ZM187.963 29.5495L187.961 30.0495L187.961 30.0495L187.963 29.5495ZM190.393 29.5577L190.394 29.0577L190.394 29.0577L190.393 29.5577ZM185.055 24.5419L185.445 24.8548L185.445 24.8548L185.055 24.5419ZM186.305 24.2605L186.304 24.7605L186.305 24.2605ZM187.057 24.3458L187.283 23.9L187.283 23.9L187.057 24.3458ZM194.392 29.8216L194.766 30.1535L194.766 30.1535L194.392 29.8216ZM193.001 31.3887L193.352 31.7444C193.36 31.7367 193.368 31.7288 193.375 31.7206L193.001 31.3887ZM191.922 31.8272L191.92 32.3272L191.922 31.8272ZM190.117 31.8211L190.118 31.3211L190.118 31.3211L190.117 31.8211ZM189.773 31.2738L190.22 31.4987L190.22 31.4987L189.773 31.2738ZM190.526 29.7781L190.08 29.5532L190.08 29.5532L190.526 29.7781ZM194.217 25.4335L194.305 25.9256L194.305 25.9256L194.217 25.4335ZM189.471 26.3194L189.38 25.8279L189.38 25.8279L189.471 26.3194ZM187.813 25.5065L188.259 25.2799L188.259 25.2799L187.813 25.5065ZM199.789 28.5703L200.256 28.3923L200.255 28.3887L199.789 28.5703ZM184.393 25.6569L184.396 26.5218L185.396 26.5185L185.393 25.6536L184.393 25.6569ZM194.945 30.073L199.063 30.0868L199.067 29.0868L194.948 29.073L194.945 30.073ZM187.961 30.0495L190.391 30.0577L190.394 29.0577L187.964 29.0496L187.961 30.0495ZM185.393 25.6536C185.392 25.3389 185.392 25.1463 185.408 25.0051C185.416 24.9396 185.425 24.9021 185.432 24.8808C185.439 24.8626 185.443 24.8569 185.445 24.8548L184.665 24.229C184.5 24.4353 184.44 24.6686 184.415 24.8922C184.391 25.105 184.392 25.3664 184.393 25.6569L185.393 25.6536ZM186.304 24.7605C186.508 24.7612 186.63 24.762 186.721 24.7704C186.804 24.7779 186.825 24.7889 186.831 24.7917L187.283 23.9C187.124 23.8194 186.966 23.7884 186.812 23.7745C186.666 23.7613 186.494 23.7611 186.307 23.7605L186.304 24.7605ZM184.396 26.5218C184.398 27.2191 184.399 27.793 184.462 28.2458C184.527 28.7137 184.668 29.1251 185.001 29.4544L185.704 28.7429C185.588 28.6285 185.502 28.4624 185.453 28.1077C185.401 27.7379 185.398 27.2444 185.396 26.5185L184.396 26.5218ZM187.964 29.0496C187.23 29.0471 186.729 29.0444 186.353 28.9932C185.991 28.944 185.82 28.8582 185.704 28.7429L185.001 29.4544C185.333 29.7828 185.747 29.92 186.218 29.9841C186.675 30.0463 187.254 30.0472 187.961 30.0495L187.964 29.0496ZM194.018 29.4897L192.627 31.0567L193.375 31.7206L194.766 30.1535L194.018 29.4897ZM191.924 31.3272L190.118 31.3211L190.115 32.3211L191.92 32.3272L191.924 31.3272ZM190.22 31.4987L190.973 30.003L190.08 29.5532L189.327 31.0489L190.22 31.4987ZM190.118 31.3211C190.193 31.3214 190.266 31.4059 190.22 31.4987L189.327 31.0489C189.027 31.6427 189.472 32.319 190.115 32.3211L190.118 31.3211ZM192.65 31.0329C192.459 31.2212 192.198 31.3281 191.924 31.3272L191.92 32.3272C192.456 32.329 192.972 32.1204 193.352 31.7444L192.65 31.0329ZM194.129 24.9413C192.543 25.2261 190.957 25.5335 189.38 25.8279L189.563 26.8109C191.15 26.5147 192.724 26.2097 194.305 25.9256L194.129 24.9413ZM186.307 23.7605C186.159 23.76 185.843 23.7393 185.579 23.7692C185.295 23.8015 184.928 23.901 184.665 24.229L185.445 24.8548C185.47 24.8236 185.525 24.7818 185.692 24.7628C185.88 24.7415 186.045 24.7596 186.304 24.7605L186.307 23.7605ZM188.259 25.2799C188.219 25.2005 188.178 25.1087 188.126 24.9913C188.077 24.8803 188.019 24.751 187.951 24.6246C187.824 24.3854 187.622 24.072 187.283 23.9L186.831 24.7917C186.883 24.8183 186.964 24.8971 187.069 25.0946C187.118 25.1865 187.163 25.2867 187.212 25.3975C187.259 25.5019 187.312 25.6244 187.368 25.7332L188.259 25.2799ZM189.38 25.8279C188.911 25.9153 188.755 25.8907 188.673 25.8511C188.594 25.8126 188.476 25.7069 188.259 25.2799L187.368 25.7332C187.588 26.1668 187.832 26.5549 188.238 26.7513C188.642 26.9467 189.096 26.8982 189.563 26.8109L189.38 25.8279ZM200.255 28.3887C199.295 25.9276 196.696 24.4802 194.129 24.9413L194.305 25.9256C196.401 25.5491 198.536 26.7352 199.323 28.752L200.255 28.3887ZM199.064 30.0868C199.894 30.088 200.586 29.2596 200.256 28.3923L199.321 28.7483C199.352 28.8297 199.338 28.9067 199.29 28.9723C199.238 29.0425 199.156 29.0869 199.066 29.0868L199.064 30.0868ZM190.391 30.0577C190.125 30.0568 189.966 29.7787 190.08 29.5532L190.973 30.003C191.188 29.5767 190.884 29.0594 190.394 29.0577L190.391 30.0577ZM194.948 29.073C194.592 29.0718 194.254 29.2238 194.018 29.4897L194.766 30.1535C194.812 30.1015 194.877 30.0728 194.945 30.073L194.948 29.073Z" fill="black"/>
<path d="M354.5 35L366.5 35" stroke="black" stroke-linecap="round" stroke-linejoin="round"/>
<path d="M352.112 24.1652L351.629 24.0374L352.112 24.1652ZM351.891 25.0014L352.375 25.1292L352.375 25.1292L351.891 25.0014ZM360.809 30.5515L360.678 31.034L360.678 31.034L360.809 30.5515ZM364.784 31.6308L364.653 32.1133L364.654 32.1136L364.784 31.6308ZM354.069 28.7213L353.938 29.2038L353.938 29.2038L354.069 28.7213ZM356.415 29.3581L356.546 28.8756L356.546 28.8756L356.415 29.3581ZM352.557 23.1317L352.853 23.5349L352.853 23.5349L352.557 23.1317ZM353.837 23.1835L353.706 23.666L353.837 23.1835ZM354.541 23.4605L354.875 23.0884L354.875 23.0884L354.541 23.4605ZM360.209 30.6481L360.485 31.0655L360.485 31.0655L360.209 30.6481ZM358.46 31.8018L358.708 32.2363C358.717 32.2309 358.726 32.2252 358.735 32.2192L358.46 31.8018ZM357.304 31.946L357.173 32.4286L357.304 31.946ZM355.562 31.4729L355.693 30.9904L355.693 30.9904L355.562 31.4729ZM355.372 30.8554L355.745 31.1882L355.745 31.1882L355.372 30.8554ZM356.487 29.6056L356.114 29.2728L356.114 29.2728L356.487 29.6056ZM361.176 26.3642L361.134 26.8624L361.134 26.8624L361.176 26.3642ZM356.363 25.9917L356.401 25.4932L356.401 25.4932L356.363 25.9917ZM354.972 24.7774L355.461 24.6737L355.461 24.6737L354.972 24.7774ZM365.746 30.8362L366.243 30.7852L366.243 30.7813L365.746 30.8362ZM351.629 24.0374L351.408 24.8736L352.375 25.1292L352.596 24.293L351.629 24.0374ZM360.678 31.034L364.653 32.1133L364.915 31.1483L360.94 30.069L360.678 31.034ZM353.938 29.2038L356.284 29.8407L356.546 28.8756L354.2 28.2387L353.938 29.2038ZM352.596 24.293C352.676 23.9888 352.726 23.8028 352.778 23.6706C352.802 23.6092 352.821 23.5754 352.834 23.5568C352.845 23.5408 352.85 23.5365 352.853 23.5349L352.261 22.7286C352.048 22.885 351.93 23.0949 351.848 23.3044C351.769 23.5037 351.703 23.7566 351.629 24.0374L352.596 24.293ZM353.706 23.666C353.904 23.7196 354.021 23.7519 354.107 23.7836C354.185 23.8123 354.203 23.8285 354.207 23.8325L354.875 23.0884C354.743 22.9694 354.598 22.8985 354.452 22.8451C354.316 22.7948 354.149 22.75 353.968 22.701L353.706 23.666ZM351.408 24.8736C351.23 25.5478 351.082 26.1023 351.026 26.5559C350.968 27.0248 350.996 27.4585 351.233 27.8627L352.096 27.3575C352.014 27.217 351.974 27.0343 352.018 26.679C352.064 26.3084 352.189 25.831 352.375 25.1292L351.408 24.8736ZM354.2 28.2387C353.492 28.0463 353.008 27.914 352.659 27.7673C352.322 27.626 352.179 27.499 352.096 27.3575L351.233 27.8627C351.469 28.266 351.834 28.5057 352.272 28.6895C352.697 28.8678 353.257 29.0186 353.938 29.2038L354.2 28.2387ZM359.934 30.2307L358.185 31.3844L358.735 32.2192L360.485 31.0655L359.934 30.2307ZM357.435 31.4635L355.693 30.9904L355.431 31.9555L357.173 32.4286L357.435 31.4635ZM355.745 31.1882L356.86 29.9385L356.114 29.2728L354.999 30.5225L355.745 31.1882ZM355.693 30.9904C355.765 31.01 355.814 31.1107 355.745 31.1882L354.999 30.5225C354.556 31.0187 354.811 31.787 355.431 31.9555L355.693 30.9904ZM358.213 31.3672C357.98 31.4998 357.7 31.5355 357.435 31.4635L357.173 32.4286C357.691 32.569 358.243 32.501 358.708 32.2363L358.213 31.3672ZM361.218 25.8659C359.613 25.7306 358.001 25.6169 356.401 25.4932L356.324 26.4902C357.933 26.6147 359.533 26.7274 361.134 26.8624L361.218 25.8659ZM353.968 22.701C353.826 22.6622 353.526 22.5603 353.263 22.521C352.98 22.4786 352.6 22.4798 352.261 22.7286L352.853 23.5349C352.885 23.5113 352.949 23.4851 353.115 23.51C353.302 23.538 353.456 23.5981 353.706 23.666L353.968 22.701ZM355.461 24.6737C355.442 24.5867 355.427 24.4876 355.407 24.3607C355.388 24.2407 355.366 24.1008 355.333 23.9612C355.272 23.6972 355.158 23.3423 354.875 23.0884L354.207 23.8325C354.251 23.8718 354.309 23.9688 354.359 24.1868C354.382 24.2882 354.401 24.3968 354.419 24.5165C354.437 24.6294 354.457 24.7616 354.482 24.881L355.461 24.6737ZM356.401 25.4932C355.927 25.4565 355.782 25.3922 355.713 25.3328C355.646 25.275 355.56 25.1425 355.461 24.6737L354.482 24.881C354.583 25.3569 354.718 25.7948 355.06 26.0897C355.399 26.383 355.85 26.4536 356.324 26.4902L356.401 25.4932ZM366.243 30.7813C365.953 28.1557 363.817 26.085 361.218 25.8659L361.134 26.8624C363.256 27.0413 365.011 28.7395 365.249 30.8911L366.243 30.7813ZM364.654 32.1136C365.455 32.3295 366.338 31.7085 366.243 30.7852L365.249 30.8872C365.257 30.9738 365.224 31.0446 365.16 31.0955C365.092 31.1499 365.001 31.1714 364.914 31.148L364.654 32.1136ZM356.284 29.8407C356.026 29.7708 355.945 29.4612 356.114 29.2728L356.86 29.9385C357.178 29.5823 357.018 29.004 356.546 28.8756L356.284 29.8407ZM360.94 30.069C360.597 29.9757 360.231 30.035 359.934 30.2307L360.485 31.0655C360.543 31.0273 360.613 31.0163 360.678 31.034L360.94 30.069Z" fill="black"/>
</svg>
